<svg xmlns="http://www.w3.org/2000/svg" xmlns:svg="http://www.w3.org/2000/svg" xmlns:xlink="http://www.w3.org/1999/xlink" id="svg8" width="270.33" height="85.917" version="1.1" viewBox="0 0 71.525 22.732"><defs id="defs2"><linearGradient id="linearGradient990"><stop style="stop-color:#ff512f;stop-opacity:1" id="stop986" offset="0"/><stop style="stop-color:#dd2476;stop-opacity:1" id="stop988" offset="1"/></linearGradient><marker id="marker15865" orient="auto" refX="0" refY="0" style="overflow:visible"><path id="path15863" d="M 5.77,0 -2.88,5 V -5 Z" transform="scale(0.2)" style="fill:#000;fill-opacity:1;fill-rule:evenodd;stroke:#000;stroke-width:1.00000003pt;stroke-opacity:1"/></marker><marker style="overflow:visible" id="marker14405" orient="auto" refX="0" refY="0"><path style="fill:#fff;fill-opacity:1;fill-rule:evenodd;stroke:#fff;stroke-width:1.00000003pt;stroke-opacity:1" id="path14403" d="M 5.77,0 -2.88,5 V -5 Z" transform="scale(0.2)"/></marker><marker style="overflow:visible" id="marker13765" orient="auto" refX="0" refY="0"><path style="fill:#fff;fill-opacity:1;fill-rule:evenodd;stroke:red;stroke-width:1.00000003pt;stroke-opacity:1" id="path13763" d="M 5.77,0 -2.88,5 V -5 Z" transform="scale(0.2)"/></marker><marker id="marker10599" orient="auto" refX="0" refY="0" style="overflow:visible"><path id="path10597" d="M 5.77,0 -2.88,5 V -5 Z" transform="scale(0.2)" style="fill:#000;fill-opacity:1;fill-rule:evenodd;stroke:#000;stroke-width:1.00000003pt;stroke-opacity:1"/></marker><marker id="TriangleOutS" orient="auto" refX="0" refY="0" style="overflow:visible"><path id="path4773" d="M 5.77,0 -2.88,5 V -5 Z" transform="scale(0.2)" style="fill:#000;fill-opacity:1;fill-rule:evenodd;stroke:#000;stroke-width:1.00000003pt;stroke-opacity:1"/></marker><marker id="marker10461" orient="auto" refX="0" refY="0" style="overflow:visible"><path id="path10459" d="M 8.7185878,4.0337352 -2.2072895,0.01601326 8.7185884,-4.0017078 c -1.7454984,2.3720609 -1.7354408,5.6174519 -6e-7,8.035443 z" transform="matrix(-0.3,0,0,-0.3,0.69,0)" style="fill:#000;fill-opacity:1;fill-rule:evenodd;stroke:#000;stroke-width:.625;stroke-linejoin:round;stroke-opacity:1"/></marker><marker id="marker10403" orient="auto" refX="0" refY="0" style="overflow:visible"><path id="path10401" d="M 8.7185878,4.0337352 -2.2072895,0.01601326 8.7185884,-4.0017078 c -1.7454984,2.3720609 -1.7354408,5.6174519 -6e-7,8.035443 z" transform="matrix(-0.3,0,0,-0.3,0.69,0)" style="fill:#000;fill-opacity:1;fill-rule:evenodd;stroke:#000;stroke-width:.625;stroke-linejoin:round;stroke-opacity:1"/></marker><marker id="Arrow2Send" orient="auto" refX="0" refY="0" style="overflow:visible"><path id="path4658" d="M 8.7185878,4.0337352 -2.2072895,0.01601326 8.7185884,-4.0017078 c -1.7454984,2.3720609 -1.7354408,5.6174519 -6e-7,8.035443 z" transform="matrix(-0.3,0,0,-0.3,0.69,0)" style="fill:#000;fill-opacity:1;fill-rule:evenodd;stroke:#000;stroke-width:.625;stroke-linejoin:round;stroke-opacity:1"/></marker><marker id="Arrow2Mend" orient="auto" refX="0" refY="0" style="overflow:visible"><path id="path4652" d="M 8.7185878,4.0337352 -2.2072895,0.01601326 8.7185884,-4.0017078 c -1.7454984,2.3720609 -1.7354408,5.6174519 -6e-7,8.035443 z" transform="scale(-0.6)" style="fill:#000;fill-opacity:1;fill-rule:evenodd;stroke:#000;stroke-width:.625;stroke-linejoin:round;stroke-opacity:1"/></marker><marker id="Arrow2Lend" orient="auto" refX="0" refY="0" style="overflow:visible"><path id="path4646" d="M 8.7185878,4.0337352 -2.2072895,0.01601326 8.7185884,-4.0017078 c -1.7454984,2.3720609 -1.7354408,5.6174519 -6e-7,8.035443 z" transform="matrix(-1.1,0,0,-1.1,-1.1,0)" style="fill:#000;fill-opacity:1;fill-rule:evenodd;stroke:#000;stroke-width:.625;stroke-linejoin:round;stroke-opacity:1"/></marker><marker id="Arrow1Send" orient="auto" refX="0" refY="0" style="overflow:visible"><path id="path4640" d="M 0,0 5,-5 -12.5,0 5,5 Z" transform="matrix(-0.2,0,0,-0.2,-1.2,0)" style="fill:#000;fill-opacity:1;fill-rule:evenodd;stroke:#000;stroke-width:1.00000003pt;stroke-opacity:1"/></marker><marker id="Arrow1Lstart" orient="auto" refX="0" refY="0" style="overflow:visible"><path id="path4625" d="M 0,0 5,-5 -12.5,0 5,5 Z" transform="matrix(0.8,0,0,0.8,10,0)" style="fill-rule:evenodd;stroke:#000;stroke-width:1.00000003pt"/></marker><marker id="Arrow2Send-9" orient="auto" refX="0" refY="0" style="overflow:visible"><path id="path4658-0" d="M 8.7185878,4.0337352 -2.2072895,0.01601326 8.7185884,-4.0017078 c -1.7454984,2.3720609 -1.7354408,5.6174519 -6e-7,8.035443 z" transform="matrix(-0.3,0,0,-0.3,0.69,0)" style="fill:#000;fill-opacity:1;fill-rule:evenodd;stroke:#000;stroke-width:.625;stroke-linejoin:round;stroke-opacity:1"/></marker><linearGradient id="linearGradient992" x1="42.523" x2="44.944" y1="274.663" y2="287.478" gradientUnits="userSpaceOnUse" xlink:href="#linearGradient990"/><linearGradient id="linearGradient1000" x1="14.673" x2="18.28" y1="276.329" y2="288.115" gradientUnits="userSpaceOnUse" xlink:href="#linearGradient990"/></defs><metadata id="metadata5"/><g id="layer1" transform="translate(-7.9375006,-271.6219)"><g id="g984" style="fill:url(#linearGradient992);fill-opacity:1"><path style="font-style:normal;font-variant:normal;font-weight:700;font-stretch:normal;font-size:22.89279175px;line-height:1.25;font-family:sans-serif;-inkscape-font-specification:'sans-serif Bold';letter-spacing:0;word-spacing:0;fill:url(#linearGradient992);fill-opacity:1;stroke:none;stroke-width:.83754104" id="path16559" d="M 35.706255,280.58544 H 35.3601 q -0.248797,-0.0924 -0.800482,-0.13861 -0.551683,-0.0462 -0.919471,-0.0462 -0.832934,0 -1.471156,0.11551 -0.638222,0.11551 -1.3738,0.39273 v 8.68632 h -3.894235 v -12.97173 h 3.894235 v 1.90591 q 1.287262,-1.1782 2.239185,-1.55937 0.951925,-0.39274 1.752407,-0.39274 0.205528,0 0.465144,0.0116 0.259616,0.0116 0.454328,0.0346 z"/><path style="font-style:normal;font-variant:normal;font-weight:700;font-stretch:normal;font-size:22.89279175px;line-height:1.25;font-family:sans-serif;-inkscape-font-specification:'sans-serif Bold';letter-spacing:0;word-spacing:0;fill:url(#linearGradient992);fill-opacity:1;stroke:none;stroke-width:.83754104" id="path16561" d="m 50.828869,289.59519 h -4.532458 l -3.407455,-5.64842 -1.060098,1.37457 v 4.27385 H 37.934624 V 271.6219 h 3.894234 v 10.73084 l 4.19712,-5.72928 h 4.489188 l -4.370197,5.59066 z"/><path style="font-style:normal;font-variant:normal;font-weight:700;font-stretch:normal;font-size:22.89279175px;line-height:1.25;font-family:sans-serif;-inkscape-font-specification:'sans-serif Bold';letter-spacing:0;word-spacing:0;fill:url(#linearGradient992);fill-opacity:1;stroke:none;stroke-width:.83754104" id="path16563" d="m 58.303636,285.00946 2.769234,-8.386 h 4.002409 l -6.750008,17.73072 h -4.218755 l 1.925483,-4.8514 -4.727168,-12.87932 h 4.088946 z"/><path style="font-style:normal;font-variant:normal;font-weight:700;font-stretch:normal;font-size:22.89279175px;line-height:1.25;font-family:sans-serif;-inkscape-font-specification:'sans-serif Bold';letter-spacing:0;word-spacing:0;fill:url(#linearGradient992);fill-opacity:1;stroke:none;stroke-width:.83754104" id="path16565" d="m 79.462315,276.62346 -4.6839,12.97173 H 70.364948 L 65.713501,276.62346 H 69.8349 l 2.812503,8.91734 2.780052,-8.91734 z"/></g><path style="fill:url(#linearGradient1000);fill-opacity:1;stroke:none;stroke-width:1.61690986px;stroke-linecap:butt;stroke-linejoin:miter;stroke-opacity:1" id="path16361" d="m 7.9375006,275.03964 v 14.55208 H 22.489584 v -14.55208 z m 5.0464894,2.07481 4.459102,4.45847 1.486157,-1.48616 1.486158,7.43141 -7.431417,-1.48615 1.486789,-1.48616 -4.459101,-4.4591 z"/></g></svg>