<svg xmlns="http://www.w3.org/2000/svg" xmlns:svg="http://www.w3.org/2000/svg" id="svg8" width="270.33" height="85.917" version="1.1" viewBox="0 0 71.525 22.732"><defs id="defs2"><marker id="marker15865" orient="auto" refX="0" refY="0" style="overflow:visible"><path id="path15863" d="M 5.77,0 -2.88,5 V -5 Z" transform="scale(0.2)" style="fill:#000;fill-opacity:1;fill-rule:evenodd;stroke:#000;stroke-width:1.00000003pt;stroke-opacity:1"/></marker><marker style="overflow:visible" id="marker14405" orient="auto" refX="0" refY="0"><path style="fill:#fff;fill-opacity:1;fill-rule:evenodd;stroke:#fff;stroke-width:1.00000003pt;stroke-opacity:1" id="path14403" d="M 5.77,0 -2.88,5 V -5 Z" transform="scale(0.2)"/></marker><marker style="overflow:visible" id="marker13765" orient="auto" refX="0" refY="0"><path style="fill:#fff;fill-opacity:1;fill-rule:evenodd;stroke:red;stroke-width:1.00000003pt;stroke-opacity:1" id="path13763" d="M 5.77,0 -2.88,5 V -5 Z" transform="scale(0.2)"/></marker><marker id="marker10599" orient="auto" refX="0" refY="0" style="overflow:visible"><path id="path10597" d="M 5.77,0 -2.88,5 V -5 Z" transform="scale(0.2)" style="fill:#000;fill-opacity:1;fill-rule:evenodd;stroke:#000;stroke-width:1.00000003pt;stroke-opacity:1"/></marker><marker id="TriangleOutS" orient="auto" refX="0" refY="0" style="overflow:visible"><path id="path4773" d="M 5.77,0 -2.88,5 V -5 Z" transform="scale(0.2)" style="fill:#000;fill-opacity:1;fill-rule:evenodd;stroke:#000;stroke-width:1.00000003pt;stroke-opacity:1"/></marker><marker id="marker10461" orient="auto" refX="0" refY="0" style="overflow:visible"><path id="path10459" d="M 8.7185878,4.0337352 -2.2072895,0.01601326 8.7185884,-4.0017078 c -1.7454984,2.3720609 -1.7354408,5.6174519 -6e-7,8.035443 z" transform="matrix(-0.3,0,0,-0.3,0.69,0)" style="fill:#000;fill-opacity:1;fill-rule:evenodd;stroke:#000;stroke-width:.625;stroke-linejoin:round;stroke-opacity:1"/></marker><marker id="marker10403" orient="auto" refX="0" refY="0" style="overflow:visible"><path id="path10401" d="M 8.7185878,4.0337352 -2.2072895,0.01601326 8.7185884,-4.0017078 c -1.7454984,2.3720609 -1.7354408,5.6174519 -6e-7,8.035443 z" transform="matrix(-0.3,0,0,-0.3,0.69,0)" style="fill:#000;fill-opacity:1;fill-rule:evenodd;stroke:#000;stroke-width:.625;stroke-linejoin:round;stroke-opacity:1"/></marker><marker id="Arrow2Send" orient="auto" refX="0" refY="0" style="overflow:visible"><path id="path4658" d="M 8.7185878,4.0337352 -2.2072895,0.01601326 8.7185884,-4.0017078 c -1.7454984,2.3720609 -1.7354408,5.6174519 -6e-7,8.035443 z" transform="matrix(-0.3,0,0,-0.3,0.69,0)" style="fill:#000;fill-opacity:1;fill-rule:evenodd;stroke:#000;stroke-width:.625;stroke-linejoin:round;stroke-opacity:1"/></marker><marker id="Arrow2Mend" orient="auto" refX="0" refY="0" style="overflow:visible"><path id="path4652" d="M 8.7185878,4.0337352 -2.2072895,0.01601326 8.7185884,-4.0017078 c -1.7454984,2.3720609 -1.7354408,5.6174519 -6e-7,8.035443 z" transform="scale(-0.6)" style="fill:#000;fill-opacity:1;fill-rule:evenodd;stroke:#000;stroke-width:.625;stroke-linejoin:round;stroke-opacity:1"/></marker><marker id="Arrow2Lend" orient="auto" refX="0" refY="0" style="overflow:visible"><path id="path4646" d="M 8.7185878,4.0337352 -2.2072895,0.01601326 8.7185884,-4.0017078 c -1.7454984,2.3720609 -1.7354408,5.6174519 -6e-7,8.035443 z" transform="matrix(-1.1,0,0,-1.1,-1.1,0)" style="fill:#000;fill-opacity:1;fill-rule:evenodd;stroke:#000;stroke-width:.625;stroke-linejoin:round;stroke-opacity:1"/></marker><marker id="Arrow1Send" orient="auto" refX="0" refY="0" style="overflow:visible"><path id="path4640" d="M 0,0 5,-5 -12.5,0 5,5 Z" transform="matrix(-0.2,0,0,-0.2,-1.2,0)" style="fill:#000;fill-opacity:1;fill-rule:evenodd;stroke:#000;stroke-width:1.00000003pt;stroke-opacity:1"/></marker><marker id="Arrow1Lstart" orient="auto" refX="0" refY="0" style="overflow:visible"><path id="path4625" d="M 0,0 5,-5 -12.5,0 5,5 Z" transform="matrix(0.8,0,0,0.8,10,0)" style="fill-rule:evenodd;stroke:#000;stroke-width:1.00000003pt"/></marker><marker id="Arrow2Send-9" orient="auto" refX="0" refY="0" style="overflow:visible"><path id="path4658-0" d="M 8.7185878,4.0337352 -2.2072895,0.01601326 8.7185884,-4.0017078 c -1.7454984,2.3720609 -1.7354408,5.6174519 -6e-7,8.035443 z" transform="matrix(-0.3,0,0,-0.3,0.69,0)" style="fill:#000;fill-opacity:1;fill-rule:evenodd;stroke:#000;stroke-width:.625;stroke-linejoin:round;stroke-opacity:1"/></marker></defs><metadata id="metadata5"/><g id="layer1" transform="translate(-7.9375006,-271.6219)"><g id="g16845" style="fill:#fff"><g id="text16371" aria-label="rkyv" transform="scale(0.96772258,1.033354)" style="font-style:normal;font-variant:normal;font-weight:700;font-stretch:normal;font-size:22.89279175px;line-height:1.25;font-family:sans-serif;-inkscape-font-specification:'sans-serif Bold';letter-spacing:0;word-spacing:0;fill:#fff;fill-opacity:1;stroke:none;stroke-width:.83754104"><path id="path16559" d="m 36.897201,271.52887 h -0.3577 q -0.257096,-0.0894 -0.827181,-0.13414 -0.570084,-0.0447 -0.95014,-0.0447 -0.860715,0 -1.520224,0.11178 -0.65951,0.11178 -1.419622,0.38006 v 8.40594 h -4.024123 v -12.55303 h 4.024123 v 1.84439 q 1.330197,-1.14017 2.313871,-1.50904 0.983675,-0.38006 1.810856,-0.38006 0.212384,0 0.480659,0.0112 0.268275,0.0112 0.469481,0.0335 z" style="font-style:normal;font-variant:normal;font-weight:700;font-stretch:normal;font-size:22.89279175px;font-family:sans-serif;-inkscape-font-specification:'sans-serif Bold';fill:#fff;stroke-width:.83754104"/><path id="path16561" d="m 52.524215,280.2478 h -4.683633 l -3.521108,-5.4661 -1.095456,1.3302 v 4.1359 h -4.024123 v -17.39315 h 4.024123 v 10.38447 l 4.337111,-5.54435 h 4.63892 l -4.515961,5.41021 z" style="font-style:normal;font-variant:normal;font-weight:700;font-stretch:normal;font-size:22.89279175px;font-family:sans-serif;-inkscape-font-specification:'sans-serif Bold';fill:#fff;stroke-width:.83754104"/><path id="path16563" d="m 60.248296,275.81009 2.861599,-8.11532 H 67.2458 l -6.975148,17.15842 h -4.359467 l 1.989705,-4.69481 -4.884838,-12.46361 h 4.225329 z" style="font-style:normal;font-variant:normal;font-weight:700;font-stretch:normal;font-size:22.89279175px;font-family:sans-serif;-inkscape-font-specification:'sans-serif Bold';fill:#fff;stroke-width:.83754104"/><path id="path16565" d="m 82.112701,267.69477 -4.840127,12.55303 h -4.560673 l -4.806592,-12.55303 h 4.258864 l 2.906312,8.62951 2.872777,-8.62951 z" style="font-style:normal;font-variant:normal;font-weight:700;font-stretch:normal;font-size:22.89279175px;font-family:sans-serif;-inkscape-font-specification:'sans-serif Bold';fill:#fff;stroke-width:.83754104"/></g><path id="path16361" d="m 7.9375006,275.03964 v 14.55208 H 22.489584 v -14.55208 z m 5.0464894,2.07481 4.459102,4.45847 1.486157,-1.48616 1.486158,7.43141 -7.431417,-1.48615 1.486789,-1.48616 -4.459101,-4.4591 z" style="fill:#fff;fill-opacity:1;stroke:none;stroke-width:1.61690986px;stroke-linecap:butt;stroke-linejoin:miter;stroke-opacity:1"/></g></g></svg>